<?xml version="1.0" standalone="no"?>
<!DOCTYPE svg PUBLIC "-//W3C//DTD SVG 20010904//EN"
 "http://www.w3.org/TR/2001/REC-SVG-20010904/DTD/svg10.dtd">
<svg version="1.0" xmlns="http://www.w3.org/2000/svg"
 width="512.000000pt" height="512.000000pt" viewBox="0 0 512.000000 512.000000"
 preserveAspectRatio="xMidYMid meet">
<metadata>
Created by potrace 1.16, written by Peter Selinger 2001-2019
</metadata>
<g transform="translate(0.000000,512.000000) scale(0.100000,-0.100000)"
fill="#000000" stroke="none">
<path d="M2235 5105 c-462 -60 -885 -237 -1255 -523 -117 -91 -316 -287 -413
-407 -276 -342 -459 -746 -537 -1186 -28 -156 -39 -531 -21 -702 82 -766 505
-1455 1156 -1880 324 -211 689 -344 1085 -393 152 -19 472 -18 630 1 1160 144
2081 1065 2225 2225 20 162 20 478 0 640 -92 744 -509 1411 -1140 1826 -329
216 -695 350 -1085 399 -152 18 -501 18 -645 0z m1039 -1425 c94 -24 182 -69
246 -127 l48 -43 76 20 c86 23 153 48 227 86 28 14 52 24 54 22 7 -7 -44 -99
-84 -153 -23 -31 -69 -77 -102 -102 -32 -26 -57 -48 -55 -51 11 -10 226 43
300 74 18 7 17 4 -4 -27 -38 -52 -156 -174 -209 -214 l-48 -36 -1 -118 c-6
-448 -230 -930 -570 -1227 -270 -236 -577 -363 -955 -396 -305 -26 -599 32
-887 175 l-125 62 155 7 c178 7 288 31 436 95 85 37 254 139 254 154 0 3 -24
9 -54 13 -191 22 -364 141 -451 309 l-37 72 119 6 c145 7 166 16 92 39 -151
46 -285 157 -352 291 -40 79 -67 172 -67 227 0 29 3 33 18 27 70 -29 131 -46
184 -52 l62 -6 -80 79 c-136 135 -199 306 -176 479 9 71 38 168 60 202 6 9 45
-24 128 -105 141 -138 251 -219 414 -302 187 -95 409 -160 604 -176 l74 -7 -5
99 c-9 182 45 323 172 450 148 147 346 204 539 154z"/>
</g>
</svg>
